<?xml version="1.0" encoding="UTF-8" standalone="no"?>
<!DOCTYPE svg PUBLIC "-//W3C//DTD SVG 1.1//EN"
 "http://www.w3.org/Graphics/SVG/1.1/DTD/svg11.dtd">
<!-- Generated by graphviz version 2.40.1 (20161225.0304)
 -->
<!-- Title: main Pages: 1 -->
<svg width="493pt" height="275pt"
 viewBox="0.00 0.00 493.00 275.00" xmlns="http://www.w3.org/2000/svg" xmlns:xlink="http://www.w3.org/1999/xlink">
<g id="graph0" class="graph" transform="scale(1 1) rotate(0) translate(4 271)">
<title>main</title>
<polygon fill="#ffffff" stroke="transparent" points="-4,4 -4,-271 489,-271 489,4 -4,4"/>
<g id="clust1" class="cluster">
<title>cluster1</title>
<path fill="none" stroke="#b3b3b3" d="M11.5072,-120.6833C11.5072,-120.6833 169.5072,-120.6833 169.5072,-120.6833 175.5072,-120.6833 181.5072,-126.6833 181.5072,-132.6833 181.5072,-132.6833 181.5072,-254.6833 181.5072,-254.6833 181.5072,-260.6833 175.5072,-266.6833 169.5072,-266.6833 169.5072,-266.6833 11.5072,-266.6833 11.5072,-266.6833 5.5072,-266.6833 -.4928,-260.6833 -.4928,-254.6833 -.4928,-254.6833 -.4928,-132.6833 -.4928,-132.6833 -.4928,-126.6833 5.5072,-120.6833 11.5072,-120.6833"/>
<text text-anchor="middle" x="90.5072" y="-251.4833" font-family="sans-serif" font-size="14.00" fill="#000000">Ex Libris</text>
</g>
<g id="clust2" class="cluster">
<title>cluster2</title>
<path fill="none" stroke="#b3b3b3" d="M218.8474,-48.7027C218.8474,-48.7027 472.8474,-48.7027 472.8474,-48.7027 478.8474,-48.7027 484.8474,-54.7027 484.8474,-60.7027 484.8474,-60.7027 484.8474,-215.7027 484.8474,-215.7027 484.8474,-221.7027 478.8474,-227.7027 472.8474,-227.7027 472.8474,-227.7027 218.8474,-227.7027 218.8474,-227.7027 212.8474,-227.7027 206.8474,-221.7027 206.8474,-215.7027 206.8474,-215.7027 206.8474,-60.7027 206.8474,-60.7027 206.8474,-54.7027 212.8474,-48.7027 218.8474,-48.7027"/>
<text text-anchor="middle" x="345.8474" y="-212.5027" font-family="sans-serif" font-size="14.00" fill="#000000">TU Graz</text>
</g>
<!-- ALMA API -->
<g id="node1" class="node">
<title>ALMA API</title>
<ellipse fill="none" stroke="#4169e1" cx="61.9097" cy="-146.4971" rx="53.8905" ry="18"/>
<text text-anchor="middle" x="61.9097" y="-142.7971" font-family="sans-serif" font-size="14.00" fill="#000000">ALMA API</text>
</g>
<!-- ALMA Analytics -->
<g id="node2" class="node">
<title>ALMA Analytics</title>
<ellipse fill="none" stroke="#4169e1" cx="92.4054" cy="-218.0941" rx="81.4863" ry="18"/>
<text text-anchor="middle" x="92.4054" y="-214.3941" font-family="sans-serif" font-size="14.00" fill="#000000">ALMA Analytics</text>
</g>
<!-- ALMA API&#45;&#45;ALMA Analytics -->
<g id="edge2" class="edge">
<title>ALMA API&#45;&#45;ALMA Analytics</title>
<path fill="none" stroke="#000000" d="M69.6051,-164.564C74.1927,-175.3348 80.0006,-188.9705 84.6065,-199.7839"/>
</g>
<!-- API Gateway -->
<g id="node3" class="node">
<title>API Gateway</title>
<ellipse fill="none" stroke="#4169e1" cx="284.4312" cy="-178.2343" rx="69.5877" ry="18"/>
<text text-anchor="middle" x="284.4312" y="-174.5343" font-family="sans-serif" font-size="14.00" fill="#000000">API Gateway</text>
</g>
<!-- ALMA API&#45;&#45;API Gateway -->
<g id="edge3" class="edge">
<title>ALMA API&#45;&#45;API Gateway</title>
<path fill="none" stroke="#000000" d="M111.5709,-153.5801C144.6182,-158.2934 188.2529,-164.5169 223.4135,-169.5317"/>
</g>
<!-- ALMA Analytics&#45;&#45;API Gateway -->
<g id="edge1" class="edge">
<title>ALMA Analytics&#45;&#45;API Gateway</title>
<path fill="none" stroke="#000000" d="M151.8485,-205.7552C176.8522,-200.5651 205.7461,-194.5674 230.1658,-189.4985"/>
</g>
<!-- IBIB App -->
<g id="node5" class="node">
<title>IBIB App</title>
<ellipse fill="#e5e5e5" stroke="#4169e1" cx="426.955" cy="-149.778" rx="50.0912" ry="18"/>
<text text-anchor="middle" x="426.955" y="-146.078" font-family="sans-serif" font-size="14.00" fill="#000000">IBIB App</text>
</g>
<!-- API Gateway&#45;&#45;IBIB App -->
<g id="edge4" class="edge">
<title>API Gateway&#45;&#45;IBIB App</title>
<path fill="none" stroke="#000000" d="M339.5346,-167.2324C353.9478,-164.3546 369.2918,-161.291 383.0363,-158.5468"/>
</g>
<!-- Keycloak -->
<g id="node4" class="node">
<title>Keycloak</title>
<ellipse fill="none" stroke="#4169e1" cx="296.9816" cy="-74.5452" rx="51.9908" ry="18"/>
<text text-anchor="middle" x="296.9816" y="-70.8452" font-family="sans-serif" font-size="14.00" fill="#000000">Keycloak</text>
</g>
<!-- Keycloak&#45;&#45;API Gateway -->
<g id="edge6" class="edge">
<title>Keycloak&#45;&#45;API Gateway</title>
<path fill="none" stroke="#000000" d="M294.7955,-92.6065C292.506,-111.5219 288.9302,-141.0642 286.6343,-160.0321"/>
</g>
<!-- Keycloak&#45;&#45;IBIB App -->
<g id="edge5" class="edge">
<title>Keycloak&#45;&#45;IBIB App</title>
<path fill="none" stroke="#000000" d="M323.9122,-90.1335C346.3676,-103.1314 378.1828,-121.5471 400.5036,-134.4671"/>
</g>
<!-- User -->
<g id="node6" class="node">
<title>User</title>
<ellipse fill="none" stroke="#4169e1" cx="323.159" cy="-18.4153" rx="32.4942" ry="18"/>
<text text-anchor="middle" x="323.159" y="-14.7153" font-family="sans-serif" font-size="14.00" fill="#000000">User</text>
</g>
<!-- User&#45;&#45;Keycloak -->
<g id="edge8" class="edge">
<title>User&#45;&#45;Keycloak</title>
<path fill="none" stroke="#000000" d="M315.0198,-35.8675C311.958,-42.4325 308.4725,-49.9063 305.387,-56.5223"/>
</g>
<!-- User&#45;&#45;IBIB App -->
<g id="edge7" class="edge">
<title>User&#45;&#45;IBIB App</title>
<path fill="none" stroke="#000000" d="M336.3048,-35.0525C356.0522,-60.0445 393.191,-107.0468 413.257,-132.4421"/>
</g>
</g>
</svg>
