<?xml version="1.0" encoding="UTF-8" standalone="no"?>
<!DOCTYPE svg PUBLIC "-//W3C//DTD SVG 1.1//EN"
 "http://www.w3.org/Graphics/SVG/1.1/DTD/svg11.dtd">
<!-- Generated by graphviz version 2.40.1 (20161225.0304)
 -->
<!-- Title: main Pages: 1 -->
<svg width="556pt" height="318pt"
 viewBox="0.00 0.00 556.00 318.00" xmlns="http://www.w3.org/2000/svg" xmlns:xlink="http://www.w3.org/1999/xlink">
<g id="graph0" class="graph" transform="scale(1 1) rotate(0) translate(4 314)">
<title>main</title>
<polygon fill="#ffffff" stroke="transparent" points="-4,4 -4,-314 552,-314 552,4 -4,4"/>
<g id="clust1" class="cluster">
<title>cluster1</title>
<path fill="none" stroke="#b3b3b3" d="M20,-152C20,-152 174,-152 174,-152 180,-152 186,-158 186,-164 186,-164 186,-290 186,-290 186,-296 180,-302 174,-302 174,-302 20,-302 20,-302 14,-302 8,-296 8,-290 8,-290 8,-164 8,-164 8,-158 14,-152 20,-152"/>
<text text-anchor="middle" x="97" y="-286.8" font-family="sans-serif" font-size="14.00" fill="#000000">Ex Libris</text>
</g>
<g id="clust2" class="cluster">
<title>cluster2</title>
<path fill="none" stroke="#b3b3b3" d="M206,-8C206,-8 528,-8 528,-8 534,-8 540,-14 540,-20 540,-20 540,-215 540,-215 540,-221 534,-227 528,-227 528,-227 206,-227 206,-227 200,-227 194,-221 194,-215 194,-215 194,-20 194,-20 194,-14 200,-8 206,-8"/>
<text text-anchor="middle" x="367" y="-211.8" font-family="sans-serif" font-size="14.00" fill="#000000">TU Graz</text>
</g>
<!-- ALMA API -->
<g id="node1" class="node">
<title>ALMA API</title>
<ellipse fill="none" stroke="#4169e1" cx="110" cy="-253" rx="53.8905" ry="18"/>
<text text-anchor="middle" x="110" y="-249.3" font-family="sans-serif" font-size="14.00" fill="#000000">ALMA API</text>
</g>
<!-- ALMA Analytics -->
<g id="node2" class="node">
<title>ALMA Analytics</title>
<ellipse fill="none" stroke="#4169e1" cx="97" cy="-178" rx="81.4863" ry="18"/>
<text text-anchor="middle" x="97" y="-174.3" font-family="sans-serif" font-size="14.00" fill="#000000">ALMA Analytics</text>
</g>
<!-- ALMA API&#45;&#45;ALMA Analytics -->
<g id="edge2" class="edge">
<title>ALMA API&#45;&#45;ALMA Analytics</title>
<path fill="none" stroke="#000000" d="M106.8531,-234.8446C104.8091,-223.0527 102.1561,-207.7467 100.118,-195.9882"/>
</g>
<!-- API Gateway -->
<g id="node3" class="node">
<title>API Gateway</title>
<ellipse fill="none" stroke="#4169e1" cx="287" cy="-106" rx="69.5877" ry="18"/>
<text text-anchor="middle" x="287" y="-102.3" font-family="sans-serif" font-size="14.00" fill="#000000">API Gateway</text>
</g>
<!-- ALMA API&#45;&#45;API Gateway -->
<g id="edge3" class="edge">
<title>ALMA API&#45;&#45;API Gateway</title>
<path fill="none" stroke="#000000" d="M154.3487,-242.662C165.5913,-238.8299 177.2375,-233.7204 187,-227 227.6307,-199.0303 260.7964,-150.1245 276.742,-123.8693"/>
</g>
<!-- ALMA Analytics&#45;&#45;API Gateway -->
<g id="edge1" class="edge">
<title>ALMA Analytics&#45;&#45;API Gateway</title>
<path fill="none" stroke="#000000" d="M138.2272,-162.3771C170.6422,-150.0935 215.5114,-133.0904 247.4786,-120.9765"/>
</g>
<!-- LDAP -->
<g id="node4" class="node">
<title>LDAP</title>
<ellipse fill="none" stroke="#4169e1" cx="379" cy="-34" rx="35.194" ry="18"/>
<text text-anchor="middle" x="379" y="-30.3" font-family="sans-serif" font-size="14.00" fill="#000000">LDAP</text>
</g>
<!-- API Gateway&#45;&#45;LDAP -->
<g id="edge4" class="edge">
<title>API Gateway&#45;&#45;LDAP</title>
<path fill="none" stroke="#000000" d="M309.2706,-88.5708C324.6925,-76.5015 345.0146,-60.5972 359.7383,-49.0744"/>
</g>
<!-- TUG online -->
<g id="node5" class="node">
<title>TUG online</title>
<ellipse fill="none" stroke="#4169e1" cx="264" cy="-34" rx="61.99" ry="18"/>
<text text-anchor="middle" x="264" y="-30.3" font-family="sans-serif" font-size="14.00" fill="#000000">TUG online</text>
</g>
<!-- API Gateway&#45;&#45;TUG online -->
<g id="edge6" class="edge">
<title>API Gateway&#45;&#45;TUG online</title>
<path fill="none" stroke="#000000" d="M281.1961,-87.8314C277.7361,-77 273.3558,-63.2876 269.882,-52.4133"/>
</g>
<!-- IBIB App -->
<g id="node7" class="node">
<title>IBIB App</title>
<ellipse fill="#e5e5e5" stroke="#4169e1" cx="482" cy="-34" rx="50.0912" ry="18"/>
<text text-anchor="middle" x="482" y="-30.3" font-family="sans-serif" font-size="14.00" fill="#000000">IBIB App</text>
</g>
<!-- API Gateway&#45;&#45;IBIB App -->
<g id="edge5" class="edge">
<title>API Gateway&#45;&#45;IBIB App</title>
<path fill="none" stroke="#000000" d="M326.9317,-91.256C362.2536,-78.2141 413.2802,-59.3735 447.0245,-46.914"/>
</g>
<!-- Keycloak -->
<g id="node6" class="node">
<title>Keycloak</title>
<ellipse fill="none" stroke="#4169e1" cx="388" cy="-178" rx="51.9908" ry="18"/>
<text text-anchor="middle" x="388" y="-174.3" font-family="sans-serif" font-size="14.00" fill="#000000">Keycloak</text>
</g>
<!-- Keycloak&#45;&#45;API Gateway -->
<g id="edge8" class="edge">
<title>Keycloak&#45;&#45;API Gateway</title>
<path fill="none" stroke="#000000" d="M365.0815,-161.6621C348.9015,-150.1278 327.2723,-134.709 310.8816,-123.0245"/>
</g>
<!-- Keycloak&#45;&#45;LDAP -->
<g id="edge9" class="edge">
<title>Keycloak&#45;&#45;LDAP</title>
<path fill="none" stroke="#000000" d="M386.8601,-159.7623C385.129,-132.0633 381.8563,-79.7005 380.1306,-52.0896"/>
</g>
<!-- Keycloak&#45;&#45;IBIB App -->
<g id="edge7" class="edge">
<title>Keycloak&#45;&#45;IBIB App</title>
<path fill="none" stroke="#000000" d="M399.5262,-160.3428C417.5674,-132.7053 452.2805,-79.5278 470.3795,-51.8017"/>
</g>
<!-- User web browser -->
<g id="node8" class="node">
<title>User web browser</title>
<ellipse fill="none" stroke="#4169e1" cx="428" cy="-253" rx="95.5831" ry="18"/>
<text text-anchor="middle" x="428" y="-249.3" font-family="sans-serif" font-size="14.00" fill="#000000">User web browser</text>
</g>
<!-- User web browser&#45;&#45;Keycloak -->
<g id="edge11" class="edge">
<title>User web browser&#45;&#45;Keycloak</title>
<path fill="none" stroke="#000000" d="M418.3171,-234.8446C411.9819,-222.966 403.7447,-207.5214 397.4557,-195.7294"/>
</g>
<!-- User web browser&#45;&#45;IBIB App -->
<g id="edge10" class="edge">
<title>User web browser&#45;&#45;IBIB App</title>
<path fill="none" stroke="#000000" d="M444.3859,-235.0205C446.1535,-232.4549 447.7576,-229.7496 449,-227 476.084,-167.0579 481.0783,-87.466 481.9026,-52.1756"/>
</g>
</g>
</svg>
