<?xml version="1.0" encoding="UTF-8" standalone="no"?>
<!DOCTYPE svg PUBLIC "-//W3C//DTD SVG 1.1//EN"
 "http://www.w3.org/Graphics/SVG/1.1/DTD/svg11.dtd">
<!-- Generated by graphviz version 2.40.1 (20161225.0304)
 -->
<!-- Title: main Pages: 1 -->
<svg width="522pt" height="297pt"
 viewBox="0.00 0.00 522.00 297.00" xmlns="http://www.w3.org/2000/svg" xmlns:xlink="http://www.w3.org/1999/xlink">
<g id="graph0" class="graph" transform="scale(1 1) rotate(0) translate(4 293)">
<title>main</title>
<polygon fill="#ffffff" stroke="transparent" points="-4,4 -4,-293 518,-293 518,4 -4,4"/>
<g id="clust1" class="cluster">
<title>cluster1</title>
<path fill="none" stroke="#b3b3b3" d="M11.5553,-142.8765C11.5553,-142.8765 163.5553,-142.8765 163.5553,-142.8765 169.5553,-142.8765 175.5553,-148.8765 175.5553,-154.8765 175.5553,-154.8765 175.5553,-276.8765 175.5553,-276.8765 175.5553,-282.8765 169.5553,-288.8765 163.5553,-288.8765 163.5553,-288.8765 11.5553,-288.8765 11.5553,-288.8765 5.5553,-288.8765 -.4447,-282.8765 -.4447,-276.8765 -.4447,-276.8765 -.4447,-154.8765 -.4447,-154.8765 -.4447,-148.8765 5.5553,-142.8765 11.5553,-142.8765"/>
<text text-anchor="middle" x="87.5553" y="-273.6765" font-family="sans-serif" font-size="14.00" fill="#000000">Ex Libris</text>
</g>
<g id="clust2" class="cluster">
<title>cluster2</title>
<path fill="none" stroke="#b3b3b3" d="M208.6943,-53.48C208.6943,-53.48 501.6943,-53.48 501.6943,-53.48 507.6943,-53.48 513.6943,-59.48 513.6943,-65.48 513.6943,-65.48 513.6943,-246.48 513.6943,-246.48 513.6943,-252.48 507.6943,-258.48 501.6943,-258.48 501.6943,-258.48 208.6943,-258.48 208.6943,-258.48 202.6943,-258.48 196.6943,-252.48 196.6943,-246.48 196.6943,-246.48 196.6943,-65.48 196.6943,-65.48 196.6943,-59.48 202.6943,-53.48 208.6943,-53.48"/>
<text text-anchor="middle" x="355.1943" y="-243.28" font-family="sans-serif" font-size="14.00" fill="#000000">TU Graz</text>
</g>
<!-- ALMA API -->
<g id="node1" class="node">
<title>ALMA API</title>
<ellipse fill="none" stroke="#4169e1" cx="59.9578" cy="-168.6903" rx="51.9908" ry="18"/>
<text text-anchor="middle" x="59.9578" y="-164.9903" font-family="sans-serif" font-size="14.00" fill="#000000">ALMA API</text>
</g>
<!-- ALMA Analytics -->
<g id="node2" class="node">
<title>ALMA Analytics</title>
<ellipse fill="none" stroke="#4169e1" cx="90.4535" cy="-240.2873" rx="76.8869" ry="18"/>
<text text-anchor="middle" x="90.4535" y="-236.5873" font-family="sans-serif" font-size="14.00" fill="#000000">ALMA Analytics</text>
</g>
<!-- ALMA API&#45;&#45;ALMA Analytics -->
<g id="edge2" class="edge">
<title>ALMA API&#45;&#45;ALMA Analytics</title>
<path fill="none" stroke="#000000" d="M67.6532,-186.7572C72.2408,-197.528 78.0487,-211.1636 82.6546,-221.9771"/>
</g>
<!-- API Gateway -->
<g id="node3" class="node">
<title>API Gateway</title>
<ellipse fill="none" stroke="#4169e1" cx="269.2781" cy="-183.0117" rx="64.9885" ry="18"/>
<text text-anchor="middle" x="269.2781" y="-179.3117" font-family="sans-serif" font-size="14.00" fill="#000000">API Gateway</text>
</g>
<!-- ALMA API&#45;&#45;API Gateway -->
<g id="edge3" class="edge">
<title>ALMA API&#45;&#45;API Gateway</title>
<path fill="none" stroke="#000000" d="M111.1633,-172.1937C139.7271,-174.148 175.5523,-176.5991 205.8759,-178.6738"/>
</g>
<!-- ALMA Analytics&#45;&#45;API Gateway -->
<g id="edge1" class="edge">
<title>ALMA Analytics&#45;&#45;API Gateway</title>
<path fill="none" stroke="#000000" d="M136.0412,-225.686C163.8771,-216.7705 199.2416,-205.4436 226.5401,-196.7002"/>
</g>
<!-- LDAP -->
<g id="node4" class="node">
<title>LDAP</title>
<ellipse fill="none" stroke="#4169e1" cx="381.1706" cy="-92.7618" rx="33.5952" ry="18"/>
<text text-anchor="middle" x="381.1706" y="-89.0618" font-family="sans-serif" font-size="14.00" fill="#000000">LDAP</text>
</g>
<!-- API Gateway&#45;&#45;LDAP -->
<g id="edge4" class="edge">
<title>API Gateway&#45;&#45;LDAP</title>
<path fill="none" stroke="#000000" d="M290.5876,-165.8239C311.3852,-149.049 342.7112,-123.7822 362.5407,-107.7882"/>
</g>
<!-- TUG online -->
<g id="node5" class="node">
<title>TUG online</title>
<ellipse fill="none" stroke="#4169e1" cx="446.1706" cy="-209.7618" rx="59.2899" ry="18"/>
<text text-anchor="middle" x="446.1706" y="-206.0618" font-family="sans-serif" font-size="14.00" fill="#000000">TUG online</text>
</g>
<!-- API Gateway&#45;&#45;TUG online -->
<g id="edge6" class="edge">
<title>API Gateway&#45;&#45;TUG online</title>
<path fill="none" stroke="#000000" d="M326.71,-191.6967C347.9961,-194.9156 372.0262,-198.5495 392.9237,-201.7097"/>
</g>
<!-- IBIB App -->
<g id="node7" class="node">
<title>IBIB App</title>
<ellipse fill="#e5e5e5" stroke="#4169e1" cx="411.8019" cy="-154.5553" rx="47.3916" ry="18"/>
<text text-anchor="middle" x="411.8019" y="-150.8553" font-family="sans-serif" font-size="14.00" fill="#000000">IBIB App</text>
</g>
<!-- API Gateway&#45;&#45;IBIB App -->
<g id="edge5" class="edge">
<title>API Gateway&#45;&#45;IBIB App</title>
<path fill="none" stroke="#000000" d="M322.3487,-172.4156C337.8608,-169.3184 354.6055,-165.9752 369.3657,-163.0282"/>
</g>
<!-- Keycloak -->
<g id="node6" class="node">
<title>Keycloak</title>
<ellipse fill="none" stroke="#4169e1" cx="281.8285" cy="-79.3226" rx="48.9926" ry="18"/>
<text text-anchor="middle" x="281.8285" y="-75.6226" font-family="sans-serif" font-size="14.00" fill="#000000">Keycloak</text>
</g>
<!-- Keycloak&#45;&#45;API Gateway -->
<g id="edge8" class="edge">
<title>Keycloak&#45;&#45;API Gateway</title>
<path fill="none" stroke="#000000" d="M279.6424,-97.3838C277.3529,-116.2992 273.7771,-145.8415 271.4812,-164.8095"/>
</g>
<!-- Keycloak&#45;&#45;LDAP -->
<g id="edge9" class="edge">
<title>Keycloak&#45;&#45;LDAP</title>
<path fill="none" stroke="#000000" d="M327.7193,-85.5308C334.6333,-86.4661 341.6456,-87.4148 348.2162,-88.3036"/>
</g>
<!-- Keycloak&#45;&#45;IBIB App -->
<g id="edge7" class="edge">
<title>Keycloak&#45;&#45;IBIB App</title>
<path fill="none" stroke="#000000" d="M308.1306,-94.547C330.6804,-107.5996 363.0005,-126.3075 385.539,-139.3535"/>
</g>
<!-- User web browser -->
<g id="node8" class="node">
<title>User web browser</title>
<ellipse fill="none" stroke="#4169e1" cx="324.0057" cy="-17.8648" rx="89.8845" ry="18"/>
<text text-anchor="middle" x="324.0057" y="-14.1648" font-family="sans-serif" font-size="14.00" fill="#000000">User web browser</text>
</g>
<!-- User web browser&#45;&#45;Keycloak -->
<g id="edge11" class="edge">
<title>User web browser&#45;&#45;Keycloak</title>
<path fill="none" stroke="#000000" d="M311.5793,-35.9717C306.0391,-44.0446 299.5334,-53.5242 294.0209,-61.5567"/>
</g>
<!-- User web browser&#45;&#45;IBIB App -->
<g id="edge10" class="edge">
<title>User web browser&#45;&#45;IBIB App</title>
<path fill="none" stroke="#000000" d="M335.4835,-35.7347C352.3096,-61.9313 383.4936,-110.4819 400.3213,-136.681"/>
</g>
</g>
</svg>
